<?xml version="1.0" encoding="UTF-8"?>
<!DOCTYPE svg PUBLIC "-//W3C//DTD SVG 1.1//EN" "http://www.w3.org/Graphics/SVG/1.1/DTD/svg11.dtd">
<!-- Creator: CorelDRAW -->
<svg xmlns="http://www.w3.org/2000/svg" xml:space="preserve" width="1.17337in" height="1.31072in" version="1.1" style="shape-rendering:geometricPrecision; text-rendering:geometricPrecision; image-rendering:optimizeQuality; fill-rule:evenodd; clip-rule:evenodd"
viewBox="0 0 333.28 372.29"
 xmlns:xlink="http://www.w3.org/1999/xlink"
 xmlns:xodm="http://www.corel.com/coreldraw/odm/2003">
 <defs>
  <style type="text/css">
   <![CDATA[
    .str0 {stroke:#FEFEFE;stroke-width:15.78;stroke-miterlimit:2.61313}
    .fil0 {fill:none}
   ]]>
  </style>
 </defs>
 <g id="Layer_x0020_2">
  <metadata id="CorelCorpID_0Corel-Layer"/>
  <g id="_2004653020720">
   <path class="fil0 str0" d="M31.69 369.43c0,0 -37.39,-96.02 -18.5,-138.92 11.4,-25.89 38.43,-39.88 61.35,-48.9 15.06,-5.92 28.35,-9.7 34.28,-13.28 14.95,-9.05 25.54,-25.88 25.54,-25.88"/>
   <path class="fil0 str0" d="M139.91 56.57c0,0 -25.58,-0.79 -31.88,16.53 -6.3,17.32 1.97,20.07 -17.71,43.68 -19.68,23.61 -28.73,41.32 -26.76,51.95 1.97,10.63 6.17,14.83 6.17,14.83"/>
   <path class="fil0 str0" d="M132.04 93.17c-5.9,57.85 13.77,80.68 33.84,83.82 20.07,3.15 62.57,-3.94 88.15,-36.6 25.58,-32.66 42.5,-93.66 -4.33,-120.42 -60.86,-34.78 -111.25,10.31 -117.67,73.2z"/>
   <path class="fil0 str0" d="M234.52 182.45c-3.65,34.01 8.5,47.43 20.9,49.28 12.39,1.85 38.64,-2.31 54.43,-21.52 15.79,-19.2 26.24,-55.07 -2.67,-70.8 -37.58,-20.45 -68.69,6.06 -72.66,43.03z"/>
   <path class="fil0 str0" d="M214.53 169.66c0,0 2.37,9.36 5.83,14.74 3.46,5.39 13.51,10.96 13.51,10.96"/>
   <path class="fil0 str0" d="M280.62 229.1c0,0 -22.03,21.59 -34.42,42.46 -12.39,20.87 -43.92,37.62 -81.32,40.88 -37.4,3.26 -65.67,31.53 -65.67,31.53 0,0 104.37,5.66 152,-15.66 47.62,-21.31 43.27,-85.89 29.42,-99.22z"/>
   <path class="fil0 str0" d="M262.72 360.06c0,0 -6.3,-9.13 -10.22,-17.4 -3.92,-8.26 -5.06,-12.77 -5.06,-12.77"/>
  </g>
 </g>
</svg>
